<svg width="381" height="151" viewBox="0 0 381 151" fill="none" xmlns="http://www.w3.org/2000/svg">
<g clip-path="url(#clip0_132_129)">
<rect width="381" height="151" fill="white"/>
<g clip-path="url(#clip1_132_129)">
<mask id="mask0_132_129" style="mask-type:luminance" maskUnits="userSpaceOnUse" x="-17" y="-71" width="415" height="293">
<path d="M398 -71H-17V222H398V-71Z" fill="white"/>
</mask>
<g mask="url(#mask0_132_129)">
<path d="M170.458 74.3691C169.691 75.2392 153.796 99.1831 147.208 109.415L149.927 111.26C153.134 106.387 156.341 101.515 159.548 96.6774C163.138 91.2134 166.728 85.7495 170.423 80.2159C170.736 80.6683 170.98 81.0164 171.224 81.3644C174.675 86.7239 178.126 92.0835 181.612 97.443C181.821 97.791 181.995 98.2087 182.448 98.4871C186.387 92.4315 190.256 86.3759 194.23 80.2507C195.171 81.3644 195.798 82.5129 196.53 83.5917C197.262 84.6706 197.959 85.7495 198.656 86.8283C199.388 87.942 200.12 89.0557 200.852 90.1694C201.549 91.2482 202.281 92.3271 202.979 93.406C203.711 94.5196 204.443 95.6333 205.175 96.747C205.907 97.8607 206.638 98.9743 207.37 100.088C208.068 101.167 208.8 102.246 209.497 103.325C210.229 104.438 210.961 105.552 211.693 106.666C212.39 107.744 213.122 108.823 213.819 109.902C214.133 110.389 214.446 110.842 214.76 111.329L217.479 109.485C209.741 97.791 202.072 86.1671 194.369 74.5432C194.334 74.4736 194.23 74.4735 194.09 74.4039C193.846 74.752 193.637 75.1 193.393 75.448C189.942 80.7728 186.526 86.0975 183.076 91.4222C182.866 91.7703 182.657 92.1531 182.274 92.5011C181.612 91.631 181.124 90.761 180.566 89.8909C179.973 89.0209 179.416 88.116 178.858 87.2112C178.3 86.3411 177.743 85.5059 177.185 84.6358C176.627 83.7658 176.069 82.9305 175.512 82.0604C174.954 81.1904 174.396 80.3551 173.839 79.4851C173.281 78.5802 172.723 77.7102 172.131 76.8401C171.608 76.0396 171.155 75.1348 170.458 74.3691ZM141.806 105.656C141.771 105.691 141.771 105.726 141.771 105.761L144.42 107.536C145.326 106.248 146.128 104.96 146.999 103.673C147.871 102.385 148.707 101.062 149.579 99.74C150.45 98.4175 151.321 97.1298 152.158 95.8073C153.029 94.4848 153.866 93.1972 154.737 91.8747C155.609 90.5522 156.445 89.2645 157.317 87.942C158.188 86.5847 159.094 85.2622 159.966 83.905C160.837 82.5825 161.709 81.2948 162.545 79.9723C163.417 78.6498 164.288 77.3621 165.125 76.0397C165.996 74.7172 166.833 73.4295 167.704 72.107C168.575 70.8193 169.447 69.4968 170.353 68.1395C170.597 68.418 170.771 68.6268 170.911 68.8356C171.747 70.1233 172.584 71.411 173.386 72.6986C176.104 76.9097 178.823 81.1208 181.542 85.3319C181.786 85.6799 181.96 86.0975 182.378 86.3759C182.622 86.0279 182.832 85.7147 183.041 85.4015C184.365 83.3481 185.69 81.3296 186.979 79.2763C189.175 75.8656 191.406 72.4202 193.602 69.0096C193.776 68.7312 193.881 68.3832 194.299 68.244C194.543 68.6268 194.822 68.9748 195.031 69.3228C199.876 76.6313 204.687 83.9746 209.532 91.283C212.878 96.3642 216.224 101.41 219.57 106.457C219.779 106.805 219.954 107.188 220.337 107.431L222.951 105.691C222.672 105.274 222.428 104.891 222.184 104.508C217.235 96.9906 212.25 89.4733 207.301 81.956C203.188 75.7264 199.075 69.462 194.927 63.2324C194.683 62.8844 194.543 62.4668 194.16 62.258C194.09 62.2928 194.055 62.3276 194.02 62.3624C193.951 62.432 193.916 62.4668 193.881 62.5364C190.151 68.2788 186.457 74.0559 182.727 79.7983C182.657 79.9375 182.553 80.0419 182.448 80.1811C182.413 80.2159 182.378 80.2507 182.344 80.2507C182.309 80.2507 182.274 80.2507 182.169 80.2507C181.437 79.3111 180.845 78.267 180.182 77.2577C179.52 76.2833 178.893 75.274 178.265 74.2995C177.603 73.2903 176.941 72.2462 176.279 71.2369C175.616 70.2277 174.954 69.1836 174.292 68.1743C173.664 67.1999 173.037 66.1906 172.375 65.2162C171.712 64.2069 171.12 63.1628 170.353 62.2232C170.248 62.2928 170.179 62.3276 170.109 62.3972C170.004 62.5364 169.865 62.7104 169.76 62.8844C160.523 77.2229 151.147 91.4222 141.806 105.656ZM242.192 72.7334C242.122 72.3854 242.087 71.9678 241.983 71.6198C241.878 71.2717 241.913 70.8193 241.565 70.5757C241.46 70.5757 241.39 70.5409 241.321 70.5409C237.94 70.6801 234.593 70.8193 231.212 70.9933C229.016 71.0977 226.82 71.2021 224.624 71.3065C222.603 71.411 220.546 71.4806 218.525 71.585C218.315 71.585 218.037 71.7242 217.897 71.3065C218.943 70.5409 219.988 69.7404 221.069 68.94C222.115 68.1743 223.16 67.4087 224.171 66.643C225.252 65.8426 226.297 65.0421 227.378 64.2765C228.459 63.476 229.504 62.6756 230.585 61.9099C231.631 61.1443 232.676 60.3786 233.687 59.613C234.733 58.8125 235.848 58.0469 236.894 57.2116C236.58 56.446 236.301 55.7151 235.709 55.1235C233.826 55.7499 231.979 56.3416 230.097 56.9332C228.215 57.5597 226.297 58.1861 224.415 58.8125C222.568 59.439 220.686 60.0306 218.838 60.6571C216.956 61.2835 215.074 61.9448 212.982 62.5364C213.61 61.3879 214.411 60.5875 215.074 59.6826C215.771 58.7777 216.468 57.8729 217.165 57.0028C217.862 56.098 218.559 55.1931 219.256 54.3231C219.954 53.4182 220.651 52.5133 221.348 51.6433C222.045 50.7384 222.742 49.8336 223.439 48.9635C224.136 48.0587 224.834 47.1886 225.531 46.2837C226.228 45.3789 226.925 44.5088 227.622 43.5692C227.099 42.9079 226.611 42.3163 225.949 41.8639C225.565 42.1075 225.252 42.3163 224.938 42.5251C222.254 44.3 219.605 46.1097 216.921 47.8846C213.54 50.1468 210.159 52.4089 206.778 54.7059C206.569 54.8451 206.394 55.0539 206.011 54.9495C209.009 47.5714 212.006 40.263 214.969 32.9197C214.307 32.3977 213.645 32.0148 212.982 31.7016C212.878 31.7364 212.843 31.7712 212.808 31.7712C212.773 31.806 212.738 31.806 212.703 31.8408C212.669 31.8756 212.634 31.9104 212.634 31.9104C212.599 31.9452 212.564 31.98 212.564 32.0148C212.529 32.0844 212.46 32.1192 212.425 32.1888C207.754 37.6528 203.048 43.1515 198.378 48.6155C198.273 48.7199 198.168 48.8591 198.064 48.9635C197.994 49.0679 197.924 49.1375 197.82 49.2419C197.785 49.2767 197.785 49.3115 197.75 49.3463C197.68 49.4159 197.646 49.4507 197.576 49.5203C197.541 49.5551 197.506 49.59 197.471 49.59C197.436 49.59 197.402 49.5899 197.227 49.5203C197.436 46.945 197.785 44.3696 198.064 41.7943C198.343 39.1493 198.656 36.5043 198.97 33.8593C199.284 31.2492 199.597 28.6738 199.841 26.0636C199.075 25.7156 198.343 25.5068 197.506 25.4024C196.914 26.6553 196.356 27.8734 195.798 29.0566C195.24 30.2399 194.718 31.3884 194.16 32.5717C193.602 33.7897 193.044 34.973 192.487 36.1911C191.929 37.4092 191.371 38.5924 190.814 39.8105C190.256 40.9938 189.733 42.1771 189.175 43.3255C188.618 44.5088 188.165 45.7617 187.363 46.9798C187.258 46.7014 187.189 46.5622 187.154 46.4229C187.084 46.0053 187.014 45.5877 186.945 45.1353C185.829 38.14 184.714 31.1448 183.564 24.1495C183.529 23.9059 183.424 23.6623 183.32 23.3839C182.518 23.3491 181.786 23.2795 180.984 23.4883C179.729 31.284 178.475 39.0797 177.185 46.8754C177.115 46.9102 177.011 46.9102 176.941 46.945C175.268 43.3952 173.629 39.8105 171.991 36.2607C170.318 32.6413 168.68 29.0218 166.902 25.3328C166.101 25.5416 165.334 25.646 164.637 26.0636C164.671 26.4465 164.706 26.7945 164.741 27.1425C164.776 27.4905 164.811 27.8386 164.846 28.1866C164.881 28.5694 164.95 28.9522 164.985 29.335C165.02 29.6831 165.055 30.0311 165.09 30.3791C165.125 30.7271 165.159 31.0752 165.194 31.4232C165.229 31.7712 165.264 32.1192 165.334 32.4672C165.369 32.8501 165.403 33.2329 165.473 33.6505C165.508 33.9986 165.578 34.3466 165.613 34.6946C165.647 35.0426 165.682 35.3906 165.717 35.7387C165.752 36.0867 165.822 36.4347 165.857 36.7827C165.891 37.1308 165.926 37.4788 165.961 37.8268C165.996 38.2096 166.066 38.5924 166.101 38.9753C166.135 39.3233 166.17 39.6713 166.205 40.0193C166.24 40.3674 166.31 40.7154 166.345 41.0634C166.379 41.4114 166.414 41.7594 166.449 42.1075C166.484 42.4903 166.554 42.8731 166.589 43.2559C166.623 43.604 166.658 43.952 166.693 44.3C166.728 44.648 166.798 44.9961 166.833 45.3441C166.867 45.6921 166.902 46.0401 166.937 46.3881C166.972 46.771 167.042 47.1538 167.076 47.5366C167.111 47.8846 167.146 48.2327 167.181 48.5807C167.216 48.8939 167.39 49.2071 167.146 49.6596C166.832 49.3115 166.554 49.0331 166.31 48.7547C161.743 43.3952 157.142 38.0356 152.576 32.6761C152.263 32.2932 151.984 31.8756 151.496 31.5624C150.868 31.9452 150.241 32.328 149.579 32.7457C149.718 33.1633 149.857 33.5461 149.997 33.8941C151.426 37.444 152.89 40.9938 154.354 44.5436C155.609 47.6062 156.864 50.7036 158.118 53.801C158.258 54.149 158.537 54.4623 158.362 54.9843C155.016 52.757 151.775 50.5644 148.463 48.3719C145.187 46.1793 141.91 43.9868 138.599 41.7594C137.937 42.2815 137.414 42.8383 136.926 43.4996C137.17 43.8476 137.379 44.126 137.588 44.4044C139.226 46.4926 140.865 48.6155 142.503 50.7036C145.291 54.2883 148.08 57.8729 150.868 61.4575C151.077 61.7359 151.391 61.9796 151.496 62.5364C150.136 62.084 148.881 61.7011 147.627 61.2835C146.372 60.8659 145.082 60.4483 143.827 60.0306C142.607 59.613 141.387 59.2302 140.133 58.8125C138.878 58.3949 137.588 57.9773 136.333 57.5597C135.078 57.142 133.789 56.7244 132.534 56.3068C131.279 55.8892 130.059 55.4019 128.7 55.1235C128.525 55.4367 128.351 55.7151 128.212 55.9936C128.003 56.3764 127.828 56.7592 127.619 57.1768C128.49 57.9773 129.432 58.6037 130.338 59.265C131.244 59.961 132.15 60.6223 133.092 61.2835C133.998 61.9447 134.904 62.6408 135.845 63.302C136.751 63.9633 137.658 64.6593 138.599 65.3206C139.505 65.9818 140.411 66.6779 141.352 67.3391C142.259 68.0003 143.2 68.6616 144.106 69.3576C144.978 70.0189 145.954 70.6105 146.86 71.5154C146.163 71.6546 145.64 71.5502 145.117 71.5154C144.524 71.4806 143.932 71.4458 143.339 71.411C142.782 71.3762 142.259 71.3762 141.701 71.3413C141.108 71.3065 140.516 71.3065 139.923 71.2717C139.366 71.2369 138.843 71.2021 138.285 71.1673C137.693 71.1325 137.1 71.1325 136.507 71.0977C135.95 71.0629 135.427 71.0629 134.869 71.0281C134.277 70.9933 133.684 70.9585 133.092 70.9237C132.534 70.8889 132.011 70.8889 131.453 70.8541C130.861 70.8193 130.268 70.8193 129.676 70.7845C129.118 70.7497 128.595 70.7149 128.037 70.6801C127.445 70.6453 126.852 70.6453 126.26 70.6105C125.702 70.5757 125.179 70.5409 124.621 70.5409C124.064 70.5409 123.471 70.3669 122.844 70.5409C122.704 71.3066 122.356 72.0026 122.495 72.8378C122.879 72.9771 123.192 73.1163 123.506 73.2555C126.573 74.4736 129.641 75.6568 132.708 76.8401C138.913 79.2763 145.117 81.7124 151.321 84.1138C151.496 84.1834 151.635 84.2878 151.809 84.3226L153.134 82.3389C153.134 82.3041 153.134 82.2693 153.134 82.1997C152.123 81.782 151.043 81.3644 149.997 80.9468C148.916 80.5291 147.801 80.1115 146.72 79.6591C145.675 79.2415 144.594 78.8238 143.548 78.4062C142.503 77.9886 141.422 77.571 140.377 77.1533C139.331 76.7357 138.25 76.3181 137.205 75.9352C136.124 75.5176 135.009 75.1 133.928 74.6476C132.882 74.2299 131.802 73.9515 130.861 73.2903C134.799 73.3947 138.738 73.5339 142.677 73.7775C146.163 73.9863 153.901 74.2995 154.737 74.1603C154.249 73.7079 153.761 73.3947 153.308 73.0467C152.82 72.6638 152.297 72.3158 151.809 71.933C151.321 71.585 150.868 71.2369 150.38 70.8889C149.892 70.5061 149.369 70.1581 148.881 69.7752C148.393 69.4272 147.94 69.0792 147.452 68.7312C146.964 68.3484 146.442 68.0003 145.954 67.6175C145.466 67.2695 145.012 66.9215 144.524 66.5734C144.036 66.1906 143.514 65.8426 143.026 65.4598C142.538 65.1118 142.084 64.7637 141.596 64.4157C141.108 64.0329 140.586 63.6849 140.098 63.302C139.61 62.954 139.157 62.606 138.669 62.258C138.181 61.8751 137.658 61.5271 137.17 61.1443C136.717 60.7963 136.194 60.5179 135.88 59.9958C136.229 60.0306 136.577 60.135 136.891 60.2394C140.202 61.3183 143.514 62.432 146.825 63.5108C150.345 64.6593 153.901 65.8426 157.421 66.9911C157.7 67.0955 157.979 67.2695 158.293 67.1303C158.293 67.0607 158.293 67.0259 158.293 66.9911C158.293 66.9563 158.258 66.9215 158.223 66.8867C158.188 66.8519 158.188 66.8171 158.153 66.7823C158.118 66.7475 158.118 66.7127 158.084 66.6779C158.049 66.6431 158.049 66.6082 158.014 66.5734C153.552 60.8311 149.091 55.0539 144.594 49.3115C144.559 49.2419 144.49 49.1723 144.455 49.1375C144.42 49.1027 144.42 49.0679 144.385 49.0331C144.35 48.9983 144.35 48.9635 144.315 48.9287C144.28 48.8591 144.211 48.7895 144.176 48.7547C144.141 48.7199 144.141 48.6851 144.106 48.6503C144.106 48.6155 144.071 48.5807 144.071 48.5459C144.071 48.5111 144.106 48.4763 144.141 48.3719C144.42 48.5459 144.664 48.6851 144.908 48.8243C146.825 50.112 148.742 51.3997 150.659 52.6873C154.702 55.4019 158.746 58.0817 162.754 60.7963C162.929 60.9007 163.068 61.0399 163.242 61.1095C163.382 61.1791 163.521 61.3879 163.8 61.2139C163.556 60.5527 163.312 59.9262 163.033 59.265C162.754 58.5689 162.475 57.9077 162.197 57.2116C161.918 56.5504 161.674 55.8892 161.395 55.2627C161.116 54.6363 160.872 53.975 160.593 53.3138C160.314 52.6526 160.07 51.9913 159.792 51.3649C159.513 50.6688 159.234 50.0076 158.955 49.3115C158.676 48.6503 158.432 47.9891 158.153 47.3626C157.874 46.7014 157.63 46.0749 157.352 45.4137C157.073 44.7524 156.829 44.126 156.55 43.4648C156.271 42.7687 155.992 42.1075 155.713 41.4114C155.469 40.785 155.121 40.1586 154.912 39.2189C155.33 39.6365 155.539 39.8801 155.713 40.0889C157.909 42.6643 160.105 45.2049 162.266 47.7802C164.776 50.7036 167.251 53.627 169.76 56.5156C169.97 56.7592 170.109 57.142 170.632 57.142C170.492 55.9936 170.353 54.8799 170.248 53.7314C170.144 52.6525 170.004 51.5389 169.9 50.46C169.76 49.3463 169.621 48.1979 169.482 47.0842C169.342 46.0053 169.238 44.8916 169.133 43.8128C168.994 42.6991 168.889 41.5506 168.75 40.437C168.61 39.3581 168.436 38.2792 168.366 37.1656C168.296 36.0519 167.983 34.973 168.157 33.8593C168.471 34.3118 168.715 34.799 168.924 35.2862C169.168 35.8083 169.412 36.3651 169.656 36.8871C169.9 37.3744 170.109 37.8964 170.353 38.3836C170.597 38.8709 170.806 39.3929 171.05 39.8801C171.294 40.3674 171.503 40.8894 171.747 41.3766C171.991 41.8987 172.235 42.4555 172.479 42.9775C172.723 43.4648 172.932 43.9868 173.176 44.474C173.42 44.9613 173.629 45.4833 173.873 45.9705C174.117 46.4926 174.361 47.0494 174.605 47.5714C174.849 48.0587 175.059 48.5807 175.303 49.0679C175.547 49.5552 175.756 50.0772 176 50.5644C176.244 51.0516 176.453 51.5737 176.697 52.0609C176.941 52.5829 177.185 53.1398 177.429 53.6618C177.673 54.1142 177.777 54.6711 178.3 55.1583C178.37 54.8799 178.405 54.7407 178.44 54.6015C178.719 52.8962 178.997 51.1909 179.276 49.5203C179.869 45.9009 180.426 42.2467 181.019 38.6272C181.333 36.5739 181.681 34.5206 181.995 32.5021C182.03 32.328 181.995 32.0496 182.344 32.0148C182.553 33.3025 182.762 34.5902 182.971 35.8431C183.564 39.4973 184.156 43.1863 184.749 46.8406C185.167 49.4159 185.585 52.0261 186.004 54.6015C186.038 54.7755 186.038 54.9843 186.387 55.0191C186.91 53.8706 187.467 52.7222 188.025 51.5389C188.583 50.3208 189.141 49.1375 189.698 47.9195C190.256 46.7362 190.779 45.5877 191.337 44.4044C191.894 43.2211 192.417 42.0727 192.975 40.8894C193.532 39.6713 194.09 38.488 194.648 37.27C195.206 36.1215 195.659 34.9382 196.321 33.7897C196.391 33.8941 196.426 33.8941 196.426 33.9289C196.426 33.9637 196.46 33.9985 196.426 34.0333C195.624 41.0982 194.787 48.1979 193.986 55.2627C193.916 55.8544 193.881 56.446 193.811 57.0028C193.811 57.0376 193.811 57.0724 193.846 57.1072C193.881 57.142 193.916 57.142 194.02 57.2116C194.474 56.7244 194.892 56.2024 195.345 55.6803C195.798 55.1583 196.251 54.6015 196.704 54.0794C197.192 53.5226 197.68 52.931 198.168 52.3741C198.622 51.8521 199.075 51.2953 199.528 50.7732C199.981 50.2512 200.434 49.6944 200.887 49.1723C201.34 48.6503 201.793 48.0935 202.247 47.5714C202.7 47.0494 203.153 46.4926 203.606 45.9705C204.059 45.4485 204.512 44.8917 204.965 44.3696C205.453 43.8128 205.941 43.2211 206.429 42.6643C206.882 42.1423 207.336 41.5854 207.789 41.0634C208.242 40.5414 208.625 39.9845 209.392 39.3581C209.218 39.9149 209.113 40.2282 208.974 40.5414C207.963 43.0471 206.952 45.5529 205.906 48.0587C204.199 52.2697 202.491 56.4808 200.783 60.6571C200.678 60.9007 200.469 61.1095 200.713 61.4575C200.992 61.2835 201.305 61.0747 201.584 60.9007C206.673 57.4901 211.728 54.0794 216.817 50.7036C217.793 50.0424 218.769 49.3811 219.744 48.7547C219.884 48.6503 220.023 48.6155 220.198 48.8591C219.047 50.3556 217.862 51.8521 216.677 53.3834C215.492 54.9147 214.272 56.4808 213.087 58.0121C211.902 59.5434 210.717 61.0399 209.566 62.5712C208.381 64.1025 207.161 65.6338 205.872 67.3739C206.604 67.3043 207.092 67.0955 207.614 66.9215C214.133 64.7985 220.651 62.6408 227.134 60.483C227.517 60.3438 227.936 60.2742 228.354 60.2046V60.1698H228.389C228.424 60.135 228.459 60.1002 228.493 60.0654C228.493 60.1002 228.528 60.135 228.528 60.2046C228.493 60.2046 228.459 60.2046 228.389 60.1698C228.389 60.1698 228.389 60.1698 228.354 60.2046C228.354 60.2046 228.354 60.2046 228.319 60.2046C228.319 60.5875 227.971 60.6571 227.761 60.8311C225.287 62.6756 222.777 64.5201 220.302 66.3646C216.921 68.8704 213.575 71.3414 210.194 73.8471C209.985 73.9863 209.671 74.0559 209.776 74.5084C213.714 74.3343 217.688 74.1951 221.627 73.9863C225.077 73.7775 232.676 73.4643 233.513 73.5687C233.338 73.7079 233.199 73.7775 233.094 73.8471C232.467 74.0907 231.84 74.3343 231.247 74.578C224.868 77.0837 218.49 79.5895 212.111 82.0604C211.797 82.1648 211.518 82.3389 211.205 82.4781L212.564 84.4966C213.61 84.079 214.655 83.6961 215.701 83.2785C224.102 80.0071 232.467 76.7009 240.867 73.4295C241.495 73.1511 241.913 73.0815 242.192 72.7334Z" fill="#66797B"/>
</g>
<mask id="mask1_132_129" style="mask-type:luminance" maskUnits="userSpaceOnUse" x="-17" y="-71" width="415" height="293">
<path d="M398 -71H-17V222H398V-71Z" fill="white"/>
</mask>
<g mask="url(#mask1_132_129)">
<path d="M228.598 60.065C228.633 60.0302 228.668 59.9954 228.703 59.9258C228.703 59.9606 228.738 59.9954 228.738 60.065C228.703 60.065 228.668 60.065 228.598 60.065Z" fill="#66797B"/>
</g>
<mask id="mask2_132_129" style="mask-type:luminance" maskUnits="userSpaceOnUse" x="-17" y="-71" width="415" height="293">
<path d="M398 -71H-17V222H398V-71Z" fill="white"/>
</mask>
<g mask="url(#mask2_132_129)">
<path d="M328.462 90.4826C330.448 90.4826 331.912 90.5174 332.749 90.6566V88.2204H325.673V99.914H333.132L333.341 97.3734C332.017 97.4778 330.309 97.5474 328.322 97.5474C328.322 96.8166 328.322 95.8073 328.357 95.0417C330.17 95.0417 331.285 95.0765 332.122 95.1113V92.7795C331.006 92.8143 330.135 92.8491 328.392 92.8491C328.392 91.9791 328.427 91.2134 328.462 90.4826ZM322.571 88.2204H319.852V95.0069C319.852 96.9558 318.806 97.617 317.447 97.617C316.122 97.617 315.042 96.9558 315.042 95.1809V88.2204H312.288C312.323 89.1601 312.393 94.102 312.393 95.8769C312.393 98.8003 314.624 100.158 317.238 100.158C319.957 100.158 322.466 98.6611 322.466 95.6333C322.431 94.102 322.501 89.2993 322.571 88.2204ZM303.295 90.4826C305.247 90.4826 306.816 91.8747 306.816 94.0672C306.816 96.225 305.352 97.617 303.4 97.617C301.448 97.617 299.879 96.225 299.879 94.0672C299.879 91.8747 301.343 90.4826 303.295 90.4826ZM303.365 87.9072C299.74 87.9072 296.882 90.761 296.882 94.1368C296.882 97.1298 299.078 99.566 302.04 100.088C303.748 101.654 305.526 103.116 307.06 103.707C307.478 103.847 307.861 103.951 308.28 103.951C309.116 103.951 309.848 103.568 310.406 103.116C308.942 102.455 306.676 100.958 305.456 99.7748C308.001 99.0091 309.779 96.7818 309.779 93.9976C309.779 90.5522 306.955 87.9072 303.365 87.9072ZM291.514 99.914H294.163C294.163 97.4778 294.198 90.3086 294.372 88.2204H291.514V99.914ZM285.902 90.5174C287.331 90.5174 288.76 90.5522 289.701 90.6914V88.2204H279.244V90.6914C280.186 90.587 281.65 90.5174 283.113 90.5174V99.9488H285.763C285.763 97.8607 285.797 93.3712 285.902 90.5174ZM277.327 88.2552C276.665 88.0464 275.759 87.9072 274.887 87.9072C272.587 87.9072 270.495 89.1253 270.495 91.6659C270.495 95.3549 275.201 94.9025 275.201 96.747C275.201 97.5126 274.539 97.9303 273.458 97.9303C272.378 97.9303 271.227 97.7215 270.251 97.3386V99.0787C271.088 99.74 272.482 100.192 273.842 100.192C276.003 100.192 278.024 99.0439 278.024 96.6426C278.024 92.6055 273.284 93.0232 273.284 91.3178C273.284 90.7958 273.633 90.2738 274.713 90.2738C275.515 90.2738 276.491 90.4826 277.292 90.9002V88.2552H277.327ZM269.694 88.2204H266.766C265.894 89.4733 264.988 90.9002 263.908 92.7795C262.827 90.9002 261.956 89.5081 261.049 88.2204H257.843C259.446 90.3086 262.513 94.6241 262.513 95.2505V99.914H265.128C265.128 98.7655 265.128 96.5382 265.162 95.1809C265.197 94.6241 268.195 90.2738 269.694 88.2204ZM252.405 88.2204C251.255 91.3178 250.244 93.8932 249.373 95.7029C248.606 93.5452 247.63 91.1438 246.305 88.2204H242.541C242.541 90.6566 242.332 97.8259 242.157 99.914H244.911L245.085 91.6659C245.991 93.6496 247.351 96.8862 248.257 99.4964C249.268 99.4964 250.104 99.392 250.209 99.1831C251.464 96.6078 252.51 94.0672 253.451 91.6659L253.66 99.914H256.413C256.239 97.8259 256.03 90.6218 256.03 88.2204H252.405Z" fill="#66797B"/>
</g>
<mask id="mask3_132_129" style="mask-type:luminance" maskUnits="userSpaceOnUse" x="-17" y="-71" width="415" height="293">
<path d="M398 -71H-17V222H398V-71Z" fill="white"/>
</mask>
<g mask="url(#mask3_132_129)">
<path d="M117.476 97.4082C117.476 94.5196 117.545 90.065 117.685 88.2204H114.827V99.914H122.286L122.53 97.1298C121.24 97.3038 119.497 97.3734 117.476 97.4082ZM105.59 95.0417C106.043 93.6496 106.566 92.2575 107.123 90.8306C107.367 91.8747 108.134 94.1716 108.413 95.0417H105.59ZM109.145 97.1994C109.284 97.6866 109.947 99.4616 110.086 99.9488H113.014C111.446 95.9813 109.772 91.3526 108.692 87.9072C106.74 87.9072 105.903 88.0116 105.764 88.2204C104.3 91.6659 102.627 96.0858 101.267 99.9488H104.021C104.265 99.1135 104.544 98.1043 104.893 97.1994H109.145ZM97.5379 90.3086C98.4441 90.3086 99.2807 90.4826 99.8732 90.761V88.1856C99.3155 88.0464 98.4441 87.9072 97.3287 87.9072C92.9368 87.9072 90.6712 91.2134 90.6712 94.3804C90.6712 97.7215 93.146 100.227 96.527 100.227C97.7121 100.227 98.8275 99.914 99.8732 99.2876V97.269C99.0715 97.6519 98.2001 97.8259 97.3287 97.8259C95.1676 97.8259 93.6339 96.399 93.6339 94.1368C93.6688 91.9443 94.9585 90.3086 97.5379 90.3086ZM82.933 97.617C85.0244 94.9721 88.4752 89.7865 89.1026 89.0905L89.0678 88.2552H79.5171V90.761C80.4234 90.6218 83.177 90.5522 85.0244 90.5174C83.8742 92.3619 79.5868 98.1739 78.7851 99.0787L78.82 99.914H88.8238L89.1026 97.3386C86.837 97.5474 84.885 97.5822 82.933 97.617ZM72.2321 90.4826C74.2189 90.4826 75.6829 90.5174 76.5195 90.6566V88.2204H69.4436V99.914H76.9029L77.112 97.3734C75.7875 97.4778 74.0795 97.5474 72.0927 97.5474C72.0927 96.8166 72.0927 95.8073 72.1276 95.0417C73.9401 95.0417 75.0555 95.0765 75.8921 95.1113V92.7795C74.7766 92.8143 73.9052 92.8491 72.1624 92.8491C72.1624 91.9791 72.1973 91.2134 72.2321 90.4826ZM62.2981 88.2204C61.1478 91.3178 60.137 93.8932 59.2656 95.7029C58.4987 93.5452 57.5227 91.1438 56.1982 88.2204H52.4337C52.4337 90.6566 52.2246 97.8259 52.0503 99.914H54.8039L54.9782 91.6659C55.8845 93.6496 57.2439 96.8862 58.1502 99.4964C59.161 99.4964 59.9975 99.392 60.1021 99.1831C61.3569 96.6078 62.4026 94.0672 63.3438 91.6659L63.5529 99.914H66.3065C66.1323 97.8259 65.9231 90.6218 65.9231 88.2204H62.2981Z" fill="#66797B"/>
</g>
</g>
</g>
<defs>
<clipPath id="clip0_132_129">
<rect width="381" height="151" fill="white"/>
</clipPath>
<clipPath id="clip1_132_129">
<rect width="415" height="293" fill="white" transform="translate(-17 -71)"/>
</clipPath>
</defs>
</svg>
