<svg width="196" height="92" viewBox="0 0 196 92" fill="none" xmlns="http://www.w3.org/2000/svg">
<g clip-path="url(#clip0_117_102)">
<mask id="mask0_117_102" style="mask-type:luminance" maskUnits="userSpaceOnUse" x="-23" y="-39" width="242" height="171">
<path d="M219 -39H-23V132H219V-39Z" fill="white"/>
</mask>
<g mask="url(#mask0_117_102)">
<path d="M86.3127 45.8401C85.8655 46.3479 76.5969 60.322 72.7553 66.2935L74.3407 67.3699C76.2107 64.5264 78.0807 61.6828 79.9507 58.8596C82.0443 55.6707 84.1378 52.4818 86.2924 49.2524C86.4753 49.5164 86.6176 49.7195 86.7599 49.9226C88.7721 53.0505 90.7844 56.1785 92.817 59.3064C92.9389 59.5095 93.0406 59.7532 93.3048 59.9157C95.6016 56.3816 97.8578 52.8474 100.175 49.2727C100.724 49.9226 101.09 50.5929 101.516 51.2225C101.943 51.8522 102.35 52.4818 102.756 53.1115C103.183 53.7614 103.61 54.4114 104.037 55.0614C104.443 55.691 104.87 56.3207 105.277 56.9503C105.704 57.6003 106.13 58.2502 106.557 58.9002C106.984 59.5501 107.411 60.2001 107.838 60.8501C108.244 61.4797 108.671 62.1093 109.078 62.739C109.505 63.389 109.931 64.0389 110.358 64.6889C110.765 65.3185 111.192 65.9482 111.598 66.5778C111.781 66.8622 111.964 67.1262 112.147 67.4106L113.732 66.3341C109.22 59.5095 104.748 52.7256 100.256 45.9416C100.236 45.901 100.175 45.901 100.094 45.8604C99.9514 46.0635 99.8294 46.2666 99.6871 46.4697C97.6749 49.5773 95.6829 52.685 93.6707 55.7926C93.5487 55.9957 93.4268 56.2191 93.2032 56.4222C92.817 55.9144 92.5324 55.4066 92.2072 54.8989C91.8617 54.3911 91.5365 53.863 91.2112 53.3349C90.886 52.8271 90.5608 52.3397 90.2356 51.8319C89.9104 51.3241 89.5852 50.8366 89.2599 50.3288C88.9347 49.8211 88.6095 49.3336 88.2843 48.8258C87.9591 48.2977 87.6339 47.7899 87.2883 47.2822C86.9834 46.815 86.7192 46.2869 86.3127 45.8401ZM69.6048 64.0998C69.5845 64.1202 69.5845 64.1405 69.5845 64.1608L71.1293 65.1966C71.6577 64.4451 72.1252 63.6936 72.6334 62.9421C73.1415 62.1906 73.6293 61.4188 74.1375 60.6469C74.6456 59.8751 75.1538 59.1236 75.6416 58.3518C76.1497 57.5799 76.6376 56.8284 77.1457 56.0566C77.6539 55.2848 78.1417 54.5333 78.6498 53.7614C79.158 52.9693 79.6865 52.1975 80.1946 51.4053C80.7028 50.6335 81.2109 49.882 81.6987 49.1102C82.2069 48.3383 82.715 47.5868 83.2028 46.815C83.711 46.0432 84.1988 45.2917 84.707 44.5198C85.2151 43.7683 85.7232 42.9965 86.2517 42.2044C86.394 42.3669 86.4956 42.4887 86.5769 42.6106C87.0647 43.3621 87.5526 44.1136 88.0201 44.8651C89.6055 47.3228 91.1909 49.7804 92.7763 52.2381C92.9186 52.4412 93.0202 52.685 93.2641 52.8474C93.4064 52.6443 93.5284 52.4615 93.6503 52.2787C94.4227 51.0804 95.1951 49.9023 95.9472 48.704C97.2277 46.7135 98.5286 44.7026 99.8091 42.7121C99.9107 42.5497 99.9717 42.3465 100.216 42.2653C100.358 42.4887 100.52 42.6918 100.642 42.895C103.468 47.1603 106.273 51.446 109.098 55.7113C111.049 58.6768 113.001 61.6219 114.952 64.567C115.074 64.7701 115.175 64.9935 115.399 65.1357L116.923 64.1202C116.761 63.8764 116.619 63.653 116.476 63.4296C113.59 59.0424 110.683 54.6551 107.797 50.2679C105.399 46.6322 103 42.9762 100.581 39.3405C100.439 39.1374 100.358 38.8936 100.134 38.7718C100.094 38.7921 100.073 38.8124 100.053 38.8327C100.012 38.8733 99.992 38.8936 99.9717 38.9343C97.7968 42.2856 95.6423 45.6573 93.4674 49.0086C93.4268 49.0899 93.3658 49.1508 93.3048 49.232C93.2845 49.2524 93.2642 49.2727 93.2438 49.2727C93.2235 49.2727 93.2032 49.2727 93.1422 49.2727C92.7154 48.7243 92.3698 48.1149 91.9836 47.5259C91.5974 46.9572 91.2316 46.3682 90.8657 45.7995C90.4795 45.2104 90.0933 44.6011 89.7071 44.0121C89.3209 43.423 88.9347 42.8137 88.5485 42.2247C88.1827 41.656 87.8168 41.0669 87.4306 40.4982C87.0444 39.9092 86.6989 39.2999 86.2517 38.7515C86.1907 38.7921 86.1501 38.8124 86.1094 38.853C86.0485 38.9343 85.9672 39.0358 85.9062 39.1374C80.5198 47.5056 75.0522 55.7926 69.6048 64.0998ZM128.143 44.8854C128.103 44.6823 128.082 44.4386 128.021 44.2355C127.96 44.0324 127.981 43.7683 127.777 43.6262C127.717 43.6262 127.676 43.6058 127.635 43.6058C125.664 43.6871 123.712 43.7683 121.741 43.8699C120.46 43.9308 119.18 43.9918 117.899 44.0527C116.72 44.1136 115.521 44.1542 114.342 44.2152C114.22 44.2152 114.058 44.2964 113.976 44.0527C114.586 43.6058 115.196 43.1387 115.826 42.6715C116.436 42.2247 117.045 41.7778 117.635 41.331C118.265 40.8638 118.875 40.3967 119.505 39.9498C120.135 39.4827 120.745 39.0155 121.375 38.5687C121.985 38.1218 122.594 37.675 123.184 37.2281C123.794 36.761 124.444 36.3141 125.054 35.8267C124.871 35.3798 124.708 34.9533 124.363 34.608C123.265 34.9736 122.188 35.3189 121.09 35.6642C119.993 36.0298 118.875 36.3954 117.777 36.761C116.7 37.1266 115.602 37.4719 114.525 37.8375C113.427 38.2031 112.33 38.589 111.11 38.9343C111.476 38.264 111.944 37.7968 112.33 37.2687C112.736 36.7407 113.143 36.2126 113.549 35.7048C113.956 35.1767 114.362 34.6486 114.769 34.1408C115.175 33.6127 115.582 33.0846 115.988 32.5769C116.395 32.0488 116.802 31.5207 117.208 31.0129C117.615 30.4848 118.021 29.977 118.428 29.4489C118.834 28.9208 119.241 28.4131 119.647 27.8647C119.342 27.4788 119.058 27.1335 118.672 26.8694C118.448 27.0116 118.265 27.1335 118.082 27.2553C116.517 28.2912 114.972 29.3474 113.407 30.3833C111.435 31.7035 109.464 33.0237 107.492 34.3642C107.37 34.4455 107.269 34.5674 107.045 34.5064C108.793 30.2004 110.541 25.9351 112.269 21.6494C111.883 21.3448 111.496 21.1213 111.11 20.9385C111.049 20.9589 111.029 20.9792 111.009 20.9792C110.988 20.9995 110.968 20.9995 110.948 21.0198C110.927 21.0401 110.907 21.0604 110.907 21.0604C110.887 21.0807 110.866 21.101 110.866 21.1213C110.846 21.162 110.805 21.1823 110.785 21.2229C108.061 24.4118 105.317 27.6209 102.594 30.8098C102.533 30.8707 102.472 30.952 102.411 31.0129C102.37 31.0738 102.329 31.1145 102.269 31.1754C102.248 31.1957 102.248 31.216 102.228 31.2363C102.187 31.2769 102.167 31.2973 102.126 31.3379C102.106 31.3582 102.086 31.3785 102.065 31.3785C102.045 31.3785 102.025 31.3785 101.923 31.3379C102.045 29.8348 102.248 28.3318 102.411 26.8288C102.573 25.2851 102.756 23.7415 102.939 22.1978C103.122 20.6745 103.305 19.1715 103.447 17.6481C103 17.445 102.573 17.3231 102.086 17.2622C101.74 17.9934 101.415 18.7043 101.09 19.3949C100.764 20.0855 100.46 20.7557 100.134 21.4463C99.8091 22.1572 99.4839 22.8478 99.1587 23.5587C98.8334 24.2696 98.5082 24.9602 98.183 25.6711C97.8578 26.3616 97.5529 27.0522 97.2277 27.7225C96.9025 28.4131 96.6382 29.1443 96.1707 29.8552C96.1098 29.6927 96.0691 29.6114 96.0488 29.5302C96.0081 29.2864 95.9675 29.0427 95.9268 28.7787C95.2764 24.6961 94.626 20.6136 93.9552 16.531C93.9349 16.3888 93.8739 16.2467 93.8129 16.0842C93.3455 16.0639 92.9186 16.0232 92.4511 16.1451C91.7194 20.6948 90.9876 25.2445 90.2356 29.7942C90.1949 29.8145 90.134 29.8145 90.0933 29.8348C89.1177 27.7631 88.1624 25.6711 87.207 23.5993C86.2314 21.4869 85.2761 19.3746 84.2394 17.2216C83.772 17.3435 83.3248 17.4044 82.9183 17.6481C82.9386 17.8715 82.9589 18.0747 82.9793 18.2778C82.9996 18.4809 83.0199 18.684 83.0402 18.8871C83.0606 19.1105 83.1012 19.334 83.1215 19.5574C83.1419 19.7605 83.1622 19.9636 83.1825 20.1667C83.2028 20.3698 83.2232 20.5729 83.2435 20.776C83.2638 20.9792 83.2841 21.1823 83.3248 21.3854C83.3451 21.6088 83.3654 21.8322 83.4061 22.076C83.4264 22.2791 83.4671 22.4822 83.4874 22.6853C83.5077 22.8884 83.5281 23.0915 83.5484 23.2946C83.5687 23.4978 83.6093 23.7009 83.6297 23.904C83.65 24.1071 83.6703 24.3102 83.6907 24.5133C83.711 24.7367 83.7516 24.9602 83.772 25.1836C83.7923 25.3867 83.8126 25.5898 83.8329 25.7929C83.8533 25.996 83.8939 26.1991 83.9142 26.4023C83.9346 26.6054 83.9549 26.8085 83.9752 27.0116C83.9955 27.235 84.0362 27.4584 84.0565 27.6819C84.0768 27.885 84.0972 28.0881 84.1175 28.2912C84.1378 28.4943 84.1785 28.6974 84.1988 28.9005C84.2191 29.1036 84.2395 29.3068 84.2598 29.5099C84.2801 29.7333 84.3208 29.9567 84.3411 30.1801C84.3614 30.3833 84.3817 30.5864 84.4021 30.7895C84.4224 30.9723 84.524 31.1551 84.3817 31.4191C84.1988 31.216 84.0362 31.0535 83.8939 30.891C81.2312 27.7631 78.5482 24.6352 75.8855 21.5073C75.7026 21.2838 75.54 21.0401 75.2554 20.8573C74.8895 21.0807 74.5237 21.3041 74.1375 21.5479C74.2188 21.7916 74.3001 22.015 74.3814 22.2181C75.2148 24.2899 76.0684 26.3616 76.9221 28.4334C77.6539 30.2208 78.3856 32.0285 79.1173 33.8362C79.1986 34.0393 79.3612 34.2221 79.2596 34.5267C77.3083 33.2268 75.418 31.9472 73.4871 30.6676C71.5764 29.388 69.6658 28.1084 67.7348 26.8085C67.3486 27.1131 67.0438 27.4381 66.7592 27.824C66.9015 28.0272 67.0234 28.1896 67.1454 28.3521C68.1007 29.5708 69.056 30.8098 70.0113 32.0285C71.6374 34.1205 73.2635 36.2126 74.8895 38.3046C75.0115 38.4671 75.1944 38.6093 75.2554 38.9343C74.4627 38.6702 73.731 38.4468 72.9992 38.2031C72.2675 37.9593 71.5154 37.7156 70.7837 37.4719C70.0723 37.2281 69.3609 37.0047 68.6292 36.761C67.8974 36.5172 67.1454 36.2735 66.4136 36.0298C65.6819 35.786 64.9299 35.5423 64.1981 35.2986C63.4664 35.0548 62.755 34.7705 61.9623 34.608C61.8607 34.7908 61.759 34.9533 61.6777 35.1158C61.5558 35.3392 61.4541 35.5626 61.3322 35.8063C61.8403 36.2735 62.3891 36.6391 62.9176 37.025C63.4461 37.4312 63.9745 37.8172 64.5233 38.2031C65.0518 38.589 65.5803 38.9952 66.1291 39.3811C66.6576 39.767 67.186 40.1733 67.7348 40.5592C68.2633 40.9451 68.7918 41.3513 69.3406 41.7372C69.869 42.1231 70.4179 42.509 70.9463 42.9153C71.4545 43.3012 72.0236 43.6465 72.5521 44.1746C72.1456 44.2558 71.8407 44.1949 71.5358 44.1746C71.1902 44.1542 70.8447 44.1339 70.4992 44.1136C70.1739 44.0933 69.869 44.0933 69.5438 44.073C69.1983 44.0527 68.8528 44.0527 68.5072 44.0324C68.182 44.0121 67.8771 43.9918 67.5519 43.9714C67.2064 43.9511 66.8608 43.9511 66.5153 43.9308C66.1901 43.9105 65.8852 43.9105 65.56 43.8902C65.2144 43.8699 64.8689 43.8496 64.5233 43.8293C64.1981 43.809 63.8932 43.809 63.568 43.7886C63.2225 43.7683 62.8769 43.7683 62.5314 43.748C62.2062 43.7277 61.9013 43.7074 61.5761 43.6871C61.2306 43.6668 60.885 43.6668 60.5395 43.6465C60.2143 43.6262 59.9094 43.6058 59.5842 43.6058C59.2589 43.6058 58.9134 43.5043 58.5475 43.6058C58.4662 44.0527 58.263 44.4589 58.3443 44.9464C58.5679 45.0276 58.7508 45.1089 58.9337 45.1901C60.7224 45.901 62.5111 46.5916 64.2998 47.2822C67.9178 48.704 71.5358 50.1257 75.1538 51.5272C75.2554 51.5678 75.3367 51.6288 75.4383 51.6491L76.2107 50.4913C76.2107 50.471 76.2107 50.4507 76.2107 50.4101C75.6213 50.1664 74.9912 49.9226 74.3814 49.6789C73.7513 49.4352 73.1009 49.1914 72.4708 48.9274C71.861 48.6836 71.2309 48.4399 70.6211 48.1962C70.0113 47.9524 69.3812 47.7087 68.7715 47.465C68.1617 47.2212 67.5316 46.9775 66.9218 46.7541C66.2917 46.5103 65.6413 46.2666 65.0112 46.0026C64.4014 45.7588 63.7713 45.5963 63.2225 45.2104C65.5193 45.2714 67.8161 45.3526 70.113 45.4948C72.1456 45.6167 76.6579 45.7995 77.1457 45.7182C76.8612 45.4542 76.5766 45.2714 76.3124 45.0682C76.0278 44.8448 75.7229 44.6417 75.4383 44.4183C75.1538 44.2152 74.8895 44.0121 74.605 43.809C74.3204 43.5855 74.0155 43.3824 73.731 43.159C73.4464 42.9559 73.1822 42.7528 72.8976 42.5497C72.613 42.3262 72.3082 42.1231 72.0236 41.8997C71.739 41.6966 71.4748 41.4935 71.1902 41.2904C70.9057 41.0669 70.6008 40.8638 70.3162 40.6404C70.0317 40.4373 69.7674 40.2342 69.4829 40.0311C69.1983 39.8076 68.8934 39.6045 68.6088 39.3811C68.3243 39.178 68.06 38.9749 67.7755 38.7718C67.4909 38.5484 67.186 38.3452 66.9015 38.1218C66.6372 37.9187 66.3323 37.7562 66.1494 37.4515C66.3527 37.4719 66.5559 37.5328 66.7389 37.5937C68.6698 38.2234 70.6008 38.8733 72.5317 39.503C74.5847 40.1732 76.6579 40.8638 78.7108 41.5341C78.8734 41.595 79.036 41.6966 79.219 41.6153C79.219 41.5747 79.219 41.5544 79.219 41.5341C79.219 41.5138 79.1986 41.4935 79.1783 41.4732C79.158 41.4529 79.158 41.4325 79.1377 41.4122C79.1173 41.3919 79.1173 41.3716 79.097 41.3513C79.0767 41.331 79.0767 41.3107 79.0564 41.2904C76.4546 37.939 73.8529 34.5674 71.2309 31.216C71.2106 31.1754 71.1699 31.1348 71.1496 31.1145C71.1293 31.0941 71.1293 31.0738 71.1089 31.0535C71.0886 31.0332 71.0886 31.0129 71.0683 30.9926C71.048 30.952 71.0073 30.9113 70.987 30.891C70.9666 30.8707 70.9667 30.8504 70.9463 30.8301C70.9463 30.8098 70.926 30.7895 70.926 30.7692C70.926 30.7489 70.9463 30.7285 70.9666 30.6676C71.1293 30.7692 71.2715 30.8504 71.4138 30.9317C72.5317 31.6832 73.6497 32.4347 74.7676 33.1862C77.1254 34.7705 79.4832 36.3344 81.8207 37.9187C81.9223 37.9796 82.0036 38.0609 82.1052 38.1015C82.1865 38.1421 82.2678 38.264 82.4305 38.1624C82.2882 37.7765 82.1459 37.4109 81.9833 37.025C81.8207 36.6188 81.6581 36.2329 81.4955 35.8267C81.3328 35.4407 81.1906 35.0548 81.028 34.6892C80.8654 34.3236 80.7231 33.9377 80.5605 33.5518C80.3979 33.1659 80.2556 32.78 80.093 32.4144C79.9304 32.0081 79.7678 31.6222 79.6051 31.216C79.4425 30.8301 79.3003 30.4442 79.1377 30.0786C78.975 29.6927 78.8328 29.3271 78.6702 28.9412C78.5076 28.5552 78.3653 28.1896 78.2027 27.8037C78.0401 27.3975 77.8775 27.0116 77.7148 26.6054C77.5726 26.2398 77.3693 25.8742 77.2474 25.3258C77.4913 25.5695 77.6132 25.7117 77.7148 25.8335C78.9954 27.3366 80.2759 28.8193 81.5361 30.3223C82.9996 32.0285 84.4427 33.7346 85.9062 35.4204C86.0281 35.5626 86.1094 35.786 86.4143 35.786C86.333 35.1158 86.2517 34.4658 86.1907 33.7955C86.1298 33.1659 86.0485 32.5159 85.9875 31.8863C85.9062 31.2363 85.8249 30.566 85.7436 29.9161C85.6623 29.2864 85.6013 28.6365 85.5403 28.0068C85.459 27.3569 85.398 26.6866 85.3167 26.0367C85.2354 25.407 85.1338 24.7774 85.0931 24.1274C85.0525 23.4774 84.8696 22.8478 84.9712 22.1978C85.1541 22.4619 85.2964 22.7462 85.4184 23.0306C85.5606 23.3353 85.7029 23.6602 85.8452 23.9649C85.9875 24.2493 86.1094 24.5539 86.2517 24.8383C86.394 25.1226 86.516 25.4273 86.6582 25.7117C86.8005 25.996 86.9225 26.3007 87.0648 26.5851C87.207 26.8897 87.3493 27.2147 87.4916 27.5194C87.6339 27.8037 87.7558 28.1084 87.8981 28.3927C88.0404 28.6771 88.1623 28.9818 88.3046 29.2661C88.4469 29.5708 88.5892 29.8958 88.7315 30.2005C88.8738 30.4848 88.9957 30.7895 89.138 31.0738C89.2803 31.3582 89.4022 31.6629 89.5445 31.9472C89.6868 32.2316 89.8087 32.5362 89.951 32.8206C90.0933 33.1253 90.2356 33.4502 90.3779 33.7549C90.5201 34.019 90.5811 34.3439 90.886 34.6283C90.9267 34.4658 90.947 34.3846 90.9673 34.3033C91.1299 33.3081 91.2925 32.3128 91.4551 31.3379C91.8007 29.2255 92.1259 27.0928 92.4714 24.9805C92.6544 23.7821 92.8576 22.5837 93.0406 21.4057C93.0609 21.3041 93.0406 21.1417 93.2438 21.1213C93.3658 21.8729 93.4877 22.6244 93.6097 23.3556C93.9552 25.4883 94.3008 27.6412 94.6463 29.7739C94.8902 31.2769 95.1341 32.8003 95.378 34.3033C95.3984 34.4049 95.3984 34.5267 95.6016 34.547C95.9065 33.8768 96.2317 33.2065 96.5569 32.5159C96.8822 31.805 97.2074 31.1145 97.5326 30.4036C97.8578 29.713 98.1627 29.0427 98.4879 28.3521C98.8131 27.6616 99.118 26.9913 99.4432 26.3007C99.7684 25.5898 100.094 24.8992 100.419 24.1883C100.744 23.5181 101.008 22.8275 101.395 22.1572C101.435 22.2181 101.455 22.2181 101.455 22.2385C101.455 22.2588 101.476 22.2791 101.455 22.2994C100.988 26.4226 100.5 30.566 100.033 34.6892C99.992 35.0345 99.9717 35.3798 99.931 35.7048C99.931 35.7251 99.931 35.7454 99.9514 35.7657C99.9717 35.786 99.992 35.786 100.053 35.8267C100.317 35.5423 100.561 35.2376 100.825 34.933C101.09 34.6283 101.354 34.3033 101.618 33.9986C101.903 33.6737 102.187 33.3284 102.472 33.0034C102.736 32.6987 103 32.3737 103.264 32.0691C103.529 31.7644 103.793 31.4394 104.057 31.1348C104.321 30.8301 104.586 30.5051 104.85 30.2005C105.114 29.8958 105.378 29.5708 105.643 29.2661C105.907 28.9615 106.171 28.6365 106.435 28.3318C106.72 28.0068 107.004 27.6616 107.289 27.3366C107.553 27.0319 107.817 26.7069 108.082 26.4023C108.346 26.0976 108.57 25.7726 109.017 25.407C108.915 25.732 108.854 25.9148 108.773 26.0976C108.183 27.56 107.594 29.0224 106.984 30.4848C105.988 32.9425 104.992 35.4001 103.996 37.8375C103.935 37.9796 103.813 38.1015 103.956 38.3046C104.118 38.2031 104.301 38.0812 104.464 37.9796C107.431 35.9891 110.379 33.9986 113.346 32.0285C113.915 31.6425 114.484 31.2566 115.053 30.891C115.135 30.8301 115.216 30.8098 115.318 30.952C114.647 31.8253 113.956 32.6987 113.265 33.5924C112.574 34.4861 111.862 35.4001 111.171 36.2938C110.48 37.1875 109.789 38.0609 109.118 38.9546C108.427 39.8483 107.716 40.742 106.964 41.7575C107.391 41.7169 107.675 41.595 107.98 41.4935C111.781 40.2545 115.582 38.9952 119.363 37.7359C119.586 37.6547 119.83 37.614 120.074 37.5734V37.5531H120.094C120.115 37.5328 120.135 37.5125 120.155 37.4922C120.155 37.5125 120.176 37.5328 120.176 37.5734C120.155 37.5734 120.135 37.5734 120.094 37.5531C120.094 37.5531 120.094 37.5531 120.074 37.5734C120.074 37.5734 120.074 37.5734 120.054 37.5734C120.054 37.7968 119.85 37.8375 119.728 37.939C118.285 39.0155 116.822 40.092 115.379 41.1685C113.407 42.6309 111.456 44.073 109.484 45.5354C109.362 45.6167 109.179 45.6573 109.24 45.9213C111.537 45.8198 113.854 45.7385 116.151 45.6167C118.163 45.4948 122.594 45.312 123.082 45.3729C122.981 45.4542 122.899 45.4948 122.838 45.5354C122.472 45.6776 122.107 45.8198 121.761 45.9619C118.041 47.4243 114.322 48.8868 110.602 50.3288C110.419 50.3898 110.257 50.4913 110.074 50.5726L110.866 51.7506C111.476 51.5069 112.086 51.2835 112.696 51.0397C117.594 49.1305 122.472 47.2009 127.371 45.2917C127.737 45.1292 127.981 45.0886 128.143 44.8854Z" fill="#66797B"/>
</g>
<mask id="mask1_117_102" style="mask-type:luminance" maskUnits="userSpaceOnUse" x="-23" y="-39" width="242" height="171">
<path d="M219 -39H-23V132H219V-39Z" fill="white"/>
</mask>
<g mask="url(#mask1_117_102)">
<path d="M120.216 37.4919C120.237 37.4716 120.257 37.4513 120.277 37.4106C120.277 37.431 120.298 37.4513 120.298 37.4919C120.277 37.4919 120.257 37.4919 120.216 37.4919Z" fill="#66797B"/>
</g>
<mask id="mask2_117_102" style="mask-type:luminance" maskUnits="userSpaceOnUse" x="-23" y="-39" width="242" height="171">
<path d="M219 -39H-23V132H219V-39Z" fill="white"/>
</mask>
<g mask="url(#mask2_117_102)">
<path d="M178.45 55.2438C179.609 55.2438 180.462 55.2641 180.95 55.3453V53.9235H176.824V60.7481H181.174L181.296 59.2654C180.523 59.3263 179.527 59.3669 178.369 59.3669C178.369 58.9404 178.369 58.3514 178.389 57.9045C179.446 57.9045 180.096 57.9248 180.584 57.9451V56.5843C179.934 56.6046 179.426 56.6249 178.409 56.6249C178.409 56.1171 178.43 55.6703 178.45 55.2438ZM175.015 53.9235H173.429V57.8842C173.429 59.0216 172.82 59.4075 172.027 59.4075C171.255 59.4075 170.624 59.0216 170.624 57.9858V53.9235H169.019C169.039 54.4719 169.08 57.3561 169.08 58.392C169.08 60.0981 170.381 60.8903 171.905 60.8903C173.49 60.8903 174.954 60.0169 174.954 58.2498C174.934 57.3561 174.974 54.5532 175.015 53.9235ZM163.775 55.2438C164.913 55.2438 165.828 56.0562 165.828 57.3358C165.828 58.5951 164.974 59.4075 163.836 59.4075C162.697 59.4075 161.783 58.5951 161.783 57.3358C161.783 56.0562 162.636 55.2438 163.775 55.2438ZM163.815 53.7407C161.701 53.7407 160.035 55.4062 160.035 57.3764C160.035 59.1232 161.315 60.545 163.043 60.8496C164.039 61.7636 165.076 62.6167 165.97 62.962C166.214 63.0433 166.437 63.1042 166.681 63.1042C167.169 63.1042 167.596 62.8808 167.921 62.6167C167.067 62.2308 165.746 61.3574 165.035 60.6668C166.519 60.22 167.555 58.9201 167.555 57.2952C167.555 55.2844 165.909 53.7407 163.815 53.7407ZM156.904 60.7481H158.449C158.449 59.3263 158.47 55.1422 158.571 53.9235H156.904V60.7481ZM153.632 55.2641C154.465 55.2641 155.299 55.2844 155.848 55.3656V53.9235H149.75V55.3656C150.299 55.3047 151.152 55.2641 152.006 55.2641V60.7684H153.551C153.551 59.5497 153.571 56.9296 153.632 55.2641ZM148.632 53.9438C148.246 53.822 147.717 53.7407 147.209 53.7407C145.868 53.7407 144.648 54.4516 144.648 55.9343C144.648 58.0873 147.392 57.8233 147.392 58.8998C147.392 59.3466 147.006 59.5903 146.376 59.5903C145.746 59.5903 145.075 59.4685 144.506 59.2451V60.2606C144.994 60.6465 145.807 60.9106 146.599 60.9106C147.859 60.9106 149.038 60.2403 149.038 58.8388C149.038 56.4827 146.274 56.7265 146.274 55.7312C146.274 55.4265 146.477 55.1219 147.107 55.1219C147.575 55.1219 148.144 55.2438 148.612 55.4875V53.9438H148.632ZM144.18 53.9235H142.473C141.965 54.6547 141.437 55.4875 140.806 56.5843C140.176 55.4875 139.668 54.675 139.14 53.9235H137.27C138.205 55.1422 139.993 57.6608 139.993 58.0264V60.7481H141.518C141.518 60.0778 141.518 58.7779 141.538 57.9858C141.558 57.6608 143.306 55.1219 144.18 53.9235ZM134.099 53.9235C133.428 55.7312 132.839 57.2342 132.331 58.2904C131.883 57.0311 131.314 55.6297 130.542 53.9235H128.347C128.347 55.3453 128.225 59.5294 128.123 60.7481H129.729L129.83 55.9343C130.359 57.0921 131.152 58.981 131.68 60.5044C132.27 60.5044 132.757 60.4434 132.818 60.3216C133.55 58.8185 134.16 57.3358 134.709 55.9343L134.831 60.7481H136.436C136.335 59.5294 136.213 55.325 136.213 53.9235H134.099Z" fill="#66797B"/>
</g>
<mask id="mask3_117_102" style="mask-type:luminance" maskUnits="userSpaceOnUse" x="-23" y="-39" width="242" height="171">
<path d="M219 -39H-23V132H219V-39Z" fill="white"/>
</mask>
<g mask="url(#mask3_117_102)">
<path d="M55.4173 59.2857C55.4173 57.5998 55.458 55 55.5393 53.9235H53.8725V60.7481H58.2223L58.3646 59.1232C57.6125 59.2247 56.5962 59.2654 55.4173 59.2857ZM48.4862 57.9045C48.7504 57.0921 49.0553 56.2796 49.3805 55.4469C49.5228 56.0562 49.97 57.3967 50.1326 57.9045H48.4862ZM50.5594 59.1638C50.6407 59.4482 51.0269 60.484 51.1082 60.7684H52.8156C51.9009 58.4529 50.9253 55.7515 50.2952 53.7407C49.1569 53.7407 48.6691 53.8017 48.5878 53.9235C47.7341 55.9343 46.7585 58.5139 45.9658 60.7684H47.5715C47.7138 60.2809 47.8764 59.6919 48.0797 59.1638H50.5594ZM43.7909 55.1422C44.3194 55.1422 44.8072 55.2437 45.1527 55.4062V53.9032C44.8275 53.822 44.3194 53.7407 43.6689 53.7407C41.1079 53.7407 39.7867 55.6703 39.7867 57.5186C39.7867 59.4685 41.2298 60.9309 43.2015 60.9309C43.8925 60.9309 44.543 60.7481 45.1527 60.3825V59.2044C44.6852 59.4279 44.1771 59.5294 43.6689 59.5294C42.4087 59.5294 41.5144 58.6967 41.5144 57.3764C41.5347 56.0968 42.2868 55.1422 43.7909 55.1422ZM35.2744 59.4075C36.4939 57.8639 38.5062 54.8375 38.872 54.4313L38.8517 53.9438H33.2824V55.4062C33.8109 55.325 35.4166 55.2844 36.4939 55.2641C35.8232 56.3406 33.3231 59.7325 32.8556 60.2606L32.8759 60.7481H38.7094L38.872 59.2451C37.5509 59.3669 36.4126 59.3872 35.2744 59.4075ZM29.0343 55.2438C30.1929 55.2438 31.0466 55.2641 31.5344 55.3453V53.9235H27.4082V60.7481H31.758L31.8799 59.2654C31.1076 59.3263 30.1116 59.3669 28.953 59.3669C28.953 58.9404 28.953 58.3514 28.9733 57.9045C30.0303 57.9045 30.6807 57.9248 31.1685 57.9451V56.5843C30.5181 56.6046 30.01 56.6249 28.9937 56.6249C28.9937 56.1171 29.014 55.6703 29.0343 55.2438ZM23.2414 53.9235C22.5707 55.7312 21.9812 57.2342 21.4731 58.2904C21.0259 57.0311 20.4568 55.6297 19.6844 53.9235H17.4892C17.4892 55.3453 17.3673 59.5294 17.2656 60.7481H18.8714L18.973 55.9343C19.5015 57.0921 20.2942 58.981 20.8227 60.5043C21.4121 60.5043 21.8999 60.4434 21.9609 60.3216C22.6926 58.8185 23.3024 57.3358 23.8512 55.9343L23.9732 60.7481H25.5789C25.4773 59.5294 25.3553 55.325 25.3553 53.9235H23.2414Z" fill="#66797B"/>
</g>
</g>
<defs>
<clipPath id="clip0_117_102">
<rect width="196" height="92" fill="white"/>
</clipPath>
</defs>
</svg>
